<svg xmlns="http://www.w3.org/2000/svg" xmlns:xlink="http://www.w3.org/1999/xlink" width="500" zoomAndPan="magnify" viewBox="0 0 375 374.999991" height="500" preserveAspectRatio="xMidYMid meet" version="1.0"><defs><g/></defs><g fill="#ff6d60" fill-opacity="1"><g transform="translate(133.703282, 154.806011)"><g><path d="M 7.300781 -8.757812 L 16.871094 -11.289062 C 17.402344 -11.429688 17.722656 -11.203125 17.847656 -10.722656 L 19.128906 -5.886719 C 19.269531 -5.355469 19.089844 -5.050781 18.558594 -4.910156 L 3.191406 -0.84375 C 2.707031 -0.714844 2.351562 -0.882812 2.210938 -1.414062 L -6.328125 -33.699219 C -6.457031 -34.183594 -6.246094 -34.546875 -5.761719 -34.675781 L -0.734375 -36.007812 C -0.203125 -36.148438 0.117188 -35.921875 0.242188 -35.4375 Z M 7.300781 -8.757812 "/></g></g></g><g fill="#ff6d60" fill-opacity="1"><g transform="translate(153.663066, 149.525307)"><g><path d="M 12.953125 -38.800781 C 12.828125 -39.285156 12.558594 -39.523438 11.976562 -39.371094 L -5.808594 -34.664062 C -6.246094 -34.546875 -6.457031 -34.183594 -6.328125 -33.699219 L 2.210938 -1.414062 C 2.339844 -0.929688 2.707031 -0.714844 3.140625 -0.832031 L 20.929688 -5.535156 C 21.507812 -5.691406 21.625 -6.03125 21.496094 -6.515625 L 20.21875 -11.347656 C 20.078125 -11.878906 19.820312 -12.070312 19.238281 -11.917969 L 7.300781 -8.757812 L 5.410156 -15.910156 L 14.496094 -18.316406 C 14.980469 -18.441406 15.191406 -18.808594 15.050781 -19.339844 L 13.785156 -24.125 C 13.644531 -24.65625 13.277344 -24.871094 12.796875 -24.742188 L 3.707031 -22.339844 L 1.738281 -29.78125 L 13.675781 -32.941406 C 14.257812 -33.09375 14.359375 -33.484375 14.234375 -33.96875 Z M 12.953125 -38.800781 "/></g></g></g><g fill="#ff6d60" fill-opacity="1"><g transform="translate(175.99099, 143.61807)"><g><path d="M 11.058594 -39.125 C 11.589844 -39.265625 11.910156 -39.039062 12.035156 -38.558594 L 13.316406 -33.722656 C 13.441406 -33.242188 13.277344 -32.886719 12.746094 -32.746094 L 7.140625 -31.261719 L 14.199219 -4.582031 C 14.339844 -4.050781 14.160156 -3.746094 13.628906 -3.605469 L 8.601562 -2.277344 C 8.121094 -2.148438 7.765625 -2.3125 7.625 -2.84375 L 0.566406 -29.523438 L -5.039062 -28.039062 C -5.523438 -27.914062 -5.890625 -28.125 -6.019531 -28.609375 L -7.296875 -33.441406 C -7.425781 -33.925781 -7.210938 -34.292969 -6.726562 -34.421875 Z M 11.058594 -39.125 "/></g></g></g><g fill="#ff6d60" fill-opacity="1"><g transform="translate(196.434069, 138.209502)"><g><path d="M 0.425781 -36.3125 C -4.070312 -35.125 -5.894531 -32.054688 -4.691406 -27.511719 L -2.480469 -19.152344 C -2.238281 -18.230469 -1.648438 -17.765625 -0.703125 -17.707031 L 11.894531 -17.007812 L 13.1875 -12.125 C 13.53125 -10.820312 13.019531 -10.011719 11.765625 -9.679688 L 9.152344 -8.988281 C 7.945312 -8.671875 7.054688 -9.105469 6.710938 -10.410156 L 6.171875 -12.441406 C 6.03125 -12.972656 5.726562 -13.152344 5.195312 -13.011719 L 0.3125 -11.71875 C -0.171875 -11.589844 -0.398438 -11.273438 -0.257812 -10.742188 L 0.574219 -7.597656 C 1.777344 -3.054688 4.882812 -1.292969 9.375 -2.480469 L 14.789062 -3.914062 C 19.332031 -5.113281 21.109375 -8.171875 19.90625 -12.714844 L 17.503906 -21.800781 C 17.261719 -22.71875 16.671875 -23.183594 15.773438 -23.257812 L 3.082031 -23.933594 L 1.992188 -28.039062 C 1.660156 -29.296875 2.207031 -30.164062 3.414062 -30.484375 L 6.074219 -31.1875 C 7.378906 -31.535156 8.1875 -31.023438 8.519531 -29.765625 L 9.054688 -27.734375 C 9.183594 -27.253906 9.550781 -27.039062 10.035156 -27.167969 L 14.914062 -28.460938 C 15.445312 -28.601562 15.613281 -28.953125 15.484375 -29.4375 L 14.640625 -32.625 C 13.4375 -37.171875 10.382812 -38.949219 5.839844 -37.746094 Z M 0.425781 -36.3125 "/></g></g></g><g fill="#ff6d60" fill-opacity="1"><g transform="translate(181.545891, 176.395366)"><g><path d="M 3.804688 -6.605469 C 2.921875 -1.988281 4.910156 0.9375 9.527344 1.816406 L 15.027344 2.863281 C 19.59375 3.734375 22.566406 1.757812 23.449219 -2.859375 L 25.582031 -14.058594 C 25.683594 -14.597656 25.4375 -14.898438 24.945312 -14.992188 L 16.988281 -16.507812 C 16.449219 -16.613281 16.15625 -16.414062 16.054688 -15.875 L 15.117188 -10.960938 C 15.023438 -10.472656 15.214844 -10.128906 15.753906 -10.027344 L 18.308594 -9.539062 L 17.492188 -5.265625 C 17.242188 -3.941406 16.433594 -3.433594 15.15625 -3.675781 L 12.011719 -4.277344 C 10.734375 -4.519531 10.167969 -5.289062 10.421875 -6.613281 L 13.808594 -24.394531 C 14.054688 -25.671875 14.824219 -26.234375 16.148438 -25.984375 L 19.292969 -25.382812 C 20.570312 -25.140625 21.125 -24.324219 20.882812 -23.046875 L 20.421875 -20.640625 C 20.328125 -20.148438 20.519531 -19.808594 21.058594 -19.703125 L 25.675781 -18.824219 C 26.167969 -18.730469 26.515625 -18.96875 26.609375 -19.460938 L 27.304688 -23.09375 C 28.183594 -27.710938 26.148438 -30.644531 21.578125 -31.515625 L 16.078125 -32.5625 C 11.460938 -33.441406 8.539062 -31.453125 7.660156 -26.835938 Z M 3.804688 -6.605469 "/></g></g></g><g fill="#ff6d60" fill-opacity="1"><g transform="translate(204.282837, 180.728319)"><g><path d="M 28.453125 -29.390625 C 28.546875 -29.882812 28.40625 -30.214844 27.816406 -30.324219 L 9.742188 -33.769531 C 9.300781 -33.855469 8.949219 -33.613281 8.855469 -33.125 L 2.605469 -0.316406 C 2.511719 0.171875 2.75 0.523438 3.191406 0.609375 L 21.265625 4.050781 C 21.855469 4.164062 22.105469 3.90625 22.199219 3.417969 L 23.136719 -1.496094 C 23.238281 -2.035156 23.089844 -2.316406 22.5 -2.429688 L 10.371094 -4.742188 L 11.753906 -12.011719 L 20.988281 -10.25 C 21.480469 -10.15625 21.828125 -10.394531 21.933594 -10.9375 L 22.859375 -15.796875 C 22.960938 -16.339844 22.722656 -16.6875 22.234375 -16.78125 L 13 -18.542969 L 14.441406 -26.105469 L 26.570312 -23.792969 C 27.160156 -23.679688 27.421875 -23.988281 27.515625 -24.480469 Z M 28.453125 -29.390625 "/></g></g></g><g fill="#ff6d60" fill-opacity="1"><g transform="translate(226.970678, 185.051914)"><g><path d="M 26.882812 -30.503906 C 27.421875 -30.398438 27.613281 -30.058594 27.519531 -29.566406 L 26.582031 -24.65625 C 26.488281 -24.164062 26.1875 -23.917969 25.648438 -24.019531 L 19.949219 -25.105469 L 14.785156 2.003906 C 14.683594 2.542969 14.390625 2.742188 13.847656 2.640625 L 8.742188 1.664062 C 8.25 1.574219 8.003906 1.269531 8.105469 0.730469 L 13.273438 -26.378906 L 7.574219 -27.464844 C 7.082031 -27.558594 6.84375 -27.910156 6.9375 -28.398438 L 7.875 -33.3125 C 7.96875 -33.800781 8.320312 -34.039062 8.808594 -33.949219 Z M 26.882812 -30.503906 "/></g></g></g><g fill="#98d8aa" fill-opacity="1"><g transform="translate(24.509112, 229.911339)"><g><path d="M 49.53125 -41.121094 C 51.1875 -49.417969 47.660156 -54.714844 39.363281 -56.375 L 29.480469 -58.351562 C 21.183594 -60.011719 15.890625 -56.480469 14.230469 -48.183594 L 6.953125 -11.824219 C 5.296875 -3.53125 8.824219 1.765625 17.121094 3.425781 L 22.59375 4.519531 L 24.285156 11.652344 C 24.5 12.425781 24.65625 13.011719 25.539062 13.1875 L 34.71875 15.023438 C 35.6875 15.214844 36.519531 14.742188 36.269531 13.679688 L 34.257812 5.386719 C 38.441406 4.203125 41.144531 0.796875 42.253906 -4.761719 Z M 25.261719 -43.683594 C 25.71875 -45.976562 27.203125 -46.964844 29.496094 -46.507812 L 35.144531 -45.378906 C 37.4375 -44.917969 38.425781 -43.433594 37.96875 -41.140625 L 31.578125 -9.195312 C 31.101562 -6.8125 29.636719 -5.910156 27.339844 -6.371094 L 21.691406 -7.5 C 19.398438 -7.960938 18.390625 -9.355469 18.867188 -11.738281 Z M 25.261719 -43.683594 "/></g></g></g><g fill="#98d8aa" fill-opacity="1"><g transform="translate(65.369382, 238.085896)"><g><path d="M 42.1875 -55.808594 C 41.21875 -56.003906 40.265625 -55.367188 40.070312 -54.394531 L 31.101562 -9.566406 C 30.625 -7.183594 29.160156 -6.28125 26.863281 -6.742188 L 22.273438 -7.660156 C 19.980469 -8.117188 18.976562 -9.511719 19.453125 -11.894531 L 28.421875 -56.726562 C 28.613281 -57.699219 27.980469 -58.652344 27.007812 -58.84375 L 18.535156 -60.539062 C 17.566406 -60.734375 16.613281 -60.097656 16.417969 -59.128906 L 6.953125 -11.824219 C 5.296875 -3.53125 8.824219 1.765625 17.121094 3.425781 L 27.003906 5.402344 C 35.300781 7.0625 40.597656 3.53125 42.253906 -4.761719 L 51.71875 -52.066406 C 51.914062 -53.035156 51.277344 -53.988281 50.308594 -54.183594 Z M 42.1875 -55.808594 "/></g></g></g><g fill="#98d8aa" fill-opacity="1"><g transform="translate(106.229652, 246.260453)"><g><path d="M 5.824219 1.164062 C 4.855469 0.972656 4.519531 0.351562 4.695312 -0.527344 L 16.488281 -59.480469 C 16.664062 -60.363281 17.210938 -60.804688 18.183594 -60.609375 L 27.363281 -58.773438 C 28.246094 -58.597656 28.667969 -57.960938 28.492188 -57.078125 L 16.695312 1.871094 C 16.519531 2.753906 15.886719 3.179688 15.003906 3 Z M 5.824219 1.164062 "/></g></g></g><g fill="#98d8aa" fill-opacity="1"><g transform="translate(123.791631, 249.773925)"><g><path d="M 20.65625 -69.292969 C 19.753906 -69.382812 19.136719 -69.046875 18.941406 -68.078125 L 17.175781 -59.25 C 17 -58.367188 17.425781 -57.734375 18.308594 -57.558594 L 36.574219 -53.902344 L 3.246094 -1.554688 C 2.472656 -0.421875 2.734375 0.546875 4.148438 0.828125 L 38.476562 7.699219 C 39.378906 7.785156 40.011719 7.363281 40.191406 6.480469 L 41.9375 -2.257812 C 42.132812 -3.226562 41.691406 -3.773438 40.808594 -3.953125 L 21.394531 -7.835938 L 54.738281 -60.273438 C 55.425781 -61.421875 55.25 -62.375 53.835938 -62.65625 Z M 20.65625 -69.292969 "/></g></g></g><g fill="#98d8aa" fill-opacity="1"><g transform="translate(165.269654, 258.07207)"><g><path d="M 20.65625 -69.292969 C 19.753906 -69.382812 19.136719 -69.046875 18.941406 -68.078125 L 17.175781 -59.25 C 17 -58.367188 17.425781 -57.734375 18.308594 -57.558594 L 36.574219 -53.902344 L 3.246094 -1.554688 C 2.472656 -0.421875 2.734375 0.546875 4.148438 0.828125 L 38.476562 7.699219 C 39.378906 7.785156 40.011719 7.363281 40.191406 6.480469 L 41.9375 -2.257812 C 42.132812 -3.226562 41.691406 -3.773438 40.808594 -3.953125 L 21.394531 -7.835938 L 54.738281 -60.273438 C 55.425781 -61.421875 55.25 -62.375 53.835938 -62.65625 Z M 20.65625 -69.292969 "/></g></g></g><g fill="#98d8aa" fill-opacity="1"><g transform="translate(206.747677, 266.370216)"><g><path d="M 5.824219 1.164062 C 4.855469 0.972656 4.519531 0.351562 4.695312 -0.527344 L 16.488281 -59.480469 C 16.664062 -60.363281 17.210938 -60.804688 18.183594 -60.609375 L 27.363281 -58.773438 C 28.246094 -58.597656 28.667969 -57.960938 28.492188 -57.078125 L 16.695312 1.871094 C 16.519531 2.753906 15.886719 3.179688 15.003906 3 Z M 5.824219 1.164062 "/></g></g></g><g fill="#98d8aa" fill-opacity="1"><g transform="translate(224.309662, 269.883689)"><g><path d="M 49.617188 -41.105469 C 51.277344 -49.402344 47.660156 -54.714844 39.453125 -56.355469 L 29.566406 -58.332031 C 21.273438 -59.992188 15.890625 -56.480469 14.230469 -48.183594 L 6.953125 -11.824219 C 5.296875 -3.53125 8.914062 1.785156 17.210938 3.441406 L 27.09375 5.421875 C 35.300781 7.0625 40.683594 3.550781 42.34375 -4.746094 L 44.25 -14.277344 C 44.425781 -15.160156 44.003906 -15.792969 43.121094 -15.972656 L 34.824219 -17.628906 C 33.855469 -17.824219 33.308594 -17.382812 33.132812 -16.5 L 31.628906 -9 C 31.152344 -6.617188 29.6875 -5.71875 27.394531 -6.175781 L 21.746094 -7.304688 C 19.453125 -7.765625 18.445312 -9.160156 18.921875 -11.542969 L 25.332031 -43.578125 C 25.789062 -45.871094 27.183594 -46.878906 29.566406 -46.402344 L 35.214844 -45.269531 C 37.511719 -44.8125 38.5 -43.328125 38.039062 -41.035156 L 36.589844 -33.796875 C 36.414062 -32.914062 36.75 -32.296875 37.722656 -32.105469 L 46.015625 -30.445312 C 46.898438 -30.269531 47.535156 -30.691406 47.710938 -31.574219 Z M 49.617188 -41.105469 "/></g></g></g><g fill="#98d8aa" fill-opacity="1"><g transform="translate(265.258199, 278.075904)"><g><path d="M 46.066406 9.214844 C 47.125 9.429688 47.671875 8.988281 47.601562 7.964844 L 44.765625 -54.007812 C 44.765625 -54.925781 44.304688 -55.382812 43.511719 -55.542969 L 31.246094 -57.996094 C 30.449219 -58.15625 29.851562 -57.910156 29.496094 -57.0625 L 3.035156 -0.953125 C 2.578125 -0.0351562 2.914062 0.582031 3.882812 0.777344 L 12.53125 2.507812 C 13.324219 2.664062 13.855469 2.3125 14.191406 1.554688 L 19.152344 -9.019531 L 35.742188 -5.699219 L 36.34375 5.984375 C 36.359375 6.816406 36.710938 7.34375 37.507812 7.503906 Z M 35.054688 -16.484375 L 23.933594 -18.707031 L 34.296875 -41.601562 Z M 35.054688 -16.484375 "/></g></g></g><g fill="#98d8aa" fill-opacity="1"><g transform="translate(312.031304, 287.433391)"><g><path d="M 18.746094 -8.363281 L 36.21875 -4.871094 C 37.191406 -4.675781 37.523438 -4.058594 37.347656 -3.175781 L 35.582031 5.648438 C 35.390625 6.621094 34.859375 6.972656 33.886719 6.78125 L 5.824219 1.164062 C 4.941406 0.988281 4.5 0.441406 4.695312 -0.527344 L 16.488281 -59.480469 C 16.664062 -60.363281 17.300781 -60.789062 18.183594 -60.609375 L 27.363281 -58.773438 C 28.332031 -58.582031 28.667969 -57.960938 28.492188 -57.078125 Z M 18.746094 -8.363281 "/></g></g></g></svg>