<svg xmlns="http://www.w3.org/2000/svg" xmlns:xlink="http://www.w3.org/1999/xlink" width="500" zoomAndPan="magnify" viewBox="0 0 375 374.999991" height="500" preserveAspectRatio="xMidYMid meet" version="1.0"><defs><g/></defs><g fill="#98d8aa" fill-opacity="1"><g transform="translate(39.195779, 218.999986)"><g><path d="M 35.996094 -44.476562 C 35.996094 -51.996094 31.996094 -55.996094 24.476562 -55.996094 L 15.519531 -55.996094 C 8 -55.996094 4 -51.996094 4 -44.476562 L 4 -11.519531 C 4 -4 8 0 15.519531 0 L 20.480469 0 L 23.199219 5.917969 C 23.519531 6.558594 23.757812 7.039062 24.558594 7.039062 L 32.878906 7.039062 C 33.757812 7.039062 34.398438 6.480469 33.996094 5.601562 L 30.796875 -1.28125 C 34.238281 -3.039062 35.996094 -6.480469 35.996094 -11.519531 Z M 14.398438 -42.476562 C 14.398438 -44.558594 15.519531 -45.675781 17.597656 -45.675781 L 22.71875 -45.675781 C 24.796875 -45.675781 25.917969 -44.558594 25.917969 -42.476562 L 25.917969 -13.519531 C 25.917969 -11.359375 24.796875 -10.320312 22.71875 -10.320312 L 17.597656 -10.320312 C 15.519531 -10.320312 14.398438 -11.359375 14.398438 -13.519531 Z M 14.398438 -42.476562 "/></g></g></g><g fill="#98d8aa" fill-opacity="1"><g transform="translate(76.231884, 218.999986)"><g><path d="M 27.039062 -55.996094 C 26.160156 -55.996094 25.4375 -55.277344 25.4375 -54.398438 L 25.4375 -13.757812 C 25.4375 -11.597656 24.320312 -10.558594 22.238281 -10.558594 L 18.078125 -10.558594 C 16 -10.558594 14.878906 -11.597656 14.878906 -13.757812 L 14.878906 -54.398438 C 14.878906 -55.277344 14.160156 -55.996094 13.277344 -55.996094 L 5.601562 -55.996094 C 4.71875 -55.996094 4 -55.277344 4 -54.398438 L 4 -11.519531 C 4 -4 8 0 15.519531 0 L 24.476562 0 C 31.996094 0 35.996094 -4 35.996094 -11.519531 L 35.996094 -54.398438 C 35.996094 -55.277344 35.277344 -55.996094 34.398438 -55.996094 Z M 27.039062 -55.996094 "/></g></g></g><g fill="#98d8aa" fill-opacity="1"><g transform="translate(113.267989, 218.999986)"><g><path d="M 5.28125 0 C 4.398438 0 4 -0.480469 4 -1.28125 L 4 -54.714844 C 4 -55.515625 4.398438 -55.996094 5.28125 -55.996094 L 13.597656 -55.996094 C 14.398438 -55.996094 14.878906 -55.515625 14.878906 -54.714844 L 14.878906 -1.28125 C 14.878906 -0.480469 14.398438 0 13.597656 0 Z M 5.28125 0 "/></g></g></g><g fill="#98d8aa" fill-opacity="1"><g transform="translate(129.186142, 218.999986)"><g><path d="M 5.917969 -63.996094 C 5.121094 -63.914062 4.640625 -63.515625 4.640625 -62.636719 L 4.640625 -54.636719 C 4.640625 -53.835938 5.121094 -53.355469 5.917969 -53.355469 L 22.480469 -53.355469 L 2.558594 -1.917969 C 2.078125 -0.800781 2.480469 0 3.757812 0 L 34.878906 0 C 35.679688 -0.078125 36.15625 -0.558594 36.15625 -1.359375 L 36.15625 -9.28125 C 36.15625 -10.160156 35.679688 -10.558594 34.878906 -10.558594 L 17.277344 -10.558594 L 37.199219 -62.074219 C 37.597656 -63.195312 37.277344 -63.996094 35.996094 -63.996094 Z M 5.917969 -63.996094 "/></g></g></g><g fill="#98d8aa" fill-opacity="1"><g transform="translate(166.782196, 218.999986)"><g><path d="M 5.917969 -63.996094 C 5.121094 -63.914062 4.640625 -63.515625 4.640625 -62.636719 L 4.640625 -54.636719 C 4.640625 -53.835938 5.121094 -53.355469 5.917969 -53.355469 L 22.480469 -53.355469 L 2.558594 -1.917969 C 2.078125 -0.800781 2.480469 0 3.757812 0 L 34.878906 0 C 35.679688 -0.078125 36.15625 -0.558594 36.15625 -1.359375 L 36.15625 -9.28125 C 36.15625 -10.160156 35.679688 -10.558594 34.878906 -10.558594 L 17.277344 -10.558594 L 37.199219 -62.074219 C 37.597656 -63.195312 37.277344 -63.996094 35.996094 -63.996094 Z M 5.917969 -63.996094 "/></g></g></g><g fill="#98d8aa" fill-opacity="1"><g transform="translate(204.378255, 218.999986)"><g><path d="M 5.28125 0 C 4.398438 0 4 -0.480469 4 -1.28125 L 4 -54.714844 C 4 -55.515625 4.398438 -55.996094 5.28125 -55.996094 L 13.597656 -55.996094 C 14.398438 -55.996094 14.878906 -55.515625 14.878906 -54.714844 L 14.878906 -1.28125 C 14.878906 -0.480469 14.398438 0 13.597656 0 Z M 5.28125 0 "/></g></g></g><g fill="#98d8aa" fill-opacity="1"><g transform="translate(220.296413, 218.999986)"><g><path d="M 36.078125 -44.476562 C 36.078125 -51.996094 31.996094 -55.996094 24.558594 -55.996094 L 15.597656 -55.996094 C 8.078125 -55.996094 4 -51.996094 4 -44.476562 L 4 -11.519531 C 4 -4 8.078125 0 15.597656 0 L 24.558594 0 C 31.996094 0 36.078125 -4 36.078125 -11.519531 L 36.078125 -20.160156 C 36.078125 -20.957031 35.597656 -21.4375 34.796875 -21.4375 L 27.277344 -21.4375 C 26.398438 -21.4375 26 -20.957031 26 -20.160156 L 26 -13.359375 C 26 -11.199219 24.878906 -10.160156 22.796875 -10.160156 L 17.679688 -10.160156 C 15.597656 -10.160156 14.480469 -11.199219 14.480469 -13.359375 L 14.480469 -42.398438 C 14.480469 -44.476562 15.519531 -45.597656 17.679688 -45.597656 L 22.796875 -45.597656 C 24.878906 -45.597656 26 -44.476562 26 -42.398438 L 26 -35.835938 C 26 -35.039062 26.398438 -34.558594 27.277344 -34.558594 L 34.796875 -34.558594 C 35.597656 -34.558594 36.078125 -35.039062 36.078125 -35.835938 Z M 36.078125 -44.476562 "/></g></g></g><g fill="#98d8aa" fill-opacity="1"><g transform="translate(257.412508, 218.999986)"><g><path d="M 41.757812 0 C 42.71875 0 43.117188 -0.480469 42.878906 -1.359375 L 29.597656 -54.875 C 29.4375 -55.675781 28.957031 -55.996094 28.238281 -55.996094 L 17.117188 -55.996094 C 16.398438 -55.996094 15.917969 -55.675781 15.757812 -54.875 L 2.480469 -1.359375 C 2.238281 -0.480469 2.640625 0 3.519531 0 L 11.359375 0 C 12.078125 0 12.480469 -0.398438 12.640625 -1.121094 L 15.117188 -11.199219 L 30.15625 -11.199219 L 32.71875 -1.121094 C 32.878906 -0.398438 33.277344 0 33.996094 0 Z M 27.679688 -20.480469 L 17.597656 -20.480469 L 22.636719 -42.238281 Z M 27.679688 -20.480469 "/></g></g></g><g fill="#98d8aa" fill-opacity="1"><g transform="translate(299.808104, 218.999986)"><g><path d="M 14.878906 -10.558594 L 30.71875 -10.558594 C 31.597656 -10.558594 31.996094 -10.078125 31.996094 -9.28125 L 31.996094 -1.28125 C 31.996094 -0.398438 31.597656 0 30.71875 0 L 5.28125 0 C 4.480469 0 4 -0.398438 4 -1.28125 L 4 -54.714844 C 4 -55.515625 4.480469 -55.996094 5.28125 -55.996094 L 13.597656 -55.996094 C 14.480469 -55.996094 14.878906 -55.515625 14.878906 -54.714844 Z M 14.878906 -10.558594 "/></g></g></g></svg>