<svg xmlns="http://www.w3.org/2000/svg" xmlns:xlink="http://www.w3.org/1999/xlink" width="400" zoomAndPan="magnify" viewBox="0 0 300 149.999998" height="200" preserveAspectRatio="xMidYMid meet" version="1.0"><defs><g/></defs><rect x="-30" width="360" fill="#ffffff" y="-15" height="179.999997" fill-opacity="1"/><rect x="-30" width="360" fill="#ffffff" y="-15" height="179.999997" fill-opacity="1"/><rect x="-30" width="360" fill="#f3e99f" y="-15" height="179.999997" fill-opacity="1"/><g fill="#ff6d60" fill-opacity="1"><g transform="translate(117.887033, 36.328695)"><g><path d="M 4.359375 -5.226562 L 10.070312 -6.738281 C 10.386719 -6.824219 10.578125 -6.6875 10.65625 -6.398438 L 11.417969 -3.515625 C 11.503906 -3.199219 11.394531 -3.015625 11.078125 -2.929688 L 1.902344 -0.503906 C 1.617188 -0.425781 1.40625 -0.527344 1.320312 -0.84375 L -3.777344 -20.117188 C -3.855469 -20.402344 -3.726562 -20.621094 -3.4375 -20.699219 L -0.4375 -21.492188 C -0.121094 -21.578125 0.0703125 -21.441406 0.144531 -21.152344 Z M 4.359375 -5.226562 "/></g></g></g><g fill="#ff6d60" fill-opacity="1"><g transform="translate(129.801616, 33.176487)"><g><path d="M 7.734375 -23.160156 C 7.65625 -23.449219 7.496094 -23.59375 7.148438 -23.5 L -3.46875 -20.691406 C -3.726562 -20.621094 -3.855469 -20.402344 -3.777344 -20.117188 L 1.320312 -0.84375 C 1.398438 -0.554688 1.617188 -0.425781 1.875 -0.496094 L 12.492188 -3.304688 C 12.839844 -3.398438 12.910156 -3.601562 12.832031 -3.890625 L 12.070312 -6.773438 C 11.984375 -7.089844 11.832031 -7.203125 11.484375 -7.113281 L 4.359375 -5.226562 L 3.230469 -9.496094 L 8.652344 -10.933594 C 8.941406 -11.007812 9.070312 -11.226562 8.984375 -11.546875 L 8.230469 -14.402344 C 8.144531 -14.71875 7.925781 -14.847656 7.636719 -14.769531 L 2.214844 -13.335938 L 1.039062 -17.777344 L 8.164062 -19.664062 C 8.511719 -19.753906 8.574219 -19.988281 8.496094 -20.277344 Z M 7.734375 -23.160156 "/></g></g></g><g fill="#ff6d60" fill-opacity="1"><g transform="translate(143.129813, 29.650283)"><g><path d="M 6.601562 -23.355469 C 6.917969 -23.441406 7.109375 -23.304688 7.183594 -23.015625 L 7.949219 -20.132812 C 8.023438 -19.84375 7.925781 -19.632812 7.609375 -19.546875 L 4.261719 -18.660156 L 8.476562 -2.734375 C 8.558594 -2.417969 8.453125 -2.238281 8.136719 -2.152344 L 5.136719 -1.359375 C 4.847656 -1.28125 4.636719 -1.378906 4.550781 -1.699219 L 0.339844 -17.625 L -3.007812 -16.738281 C -3.296875 -16.660156 -3.515625 -16.789062 -3.59375 -17.078125 L -4.355469 -19.964844 C -4.433594 -20.25 -4.304688 -20.46875 -4.015625 -20.546875 Z M 6.601562 -23.355469 "/></g></g></g><g fill="#ff6d60" fill-opacity="1"><g transform="translate(155.332889, 26.421749)"><g><path d="M 0.253906 -21.675781 C -2.429688 -20.964844 -3.519531 -19.132812 -2.800781 -16.421875 L -1.480469 -11.429688 C -1.335938 -10.882812 -0.984375 -10.605469 -0.417969 -10.570312 L 7.101562 -10.152344 L 7.871094 -7.238281 C 8.078125 -6.457031 7.773438 -5.976562 7.023438 -5.777344 L 5.464844 -5.367188 C 4.742188 -5.175781 4.210938 -5.4375 4.003906 -6.214844 L 3.683594 -7.425781 C 3.601562 -7.742188 3.417969 -7.851562 3.101562 -7.765625 L 0.1875 -6.996094 C -0.101562 -6.917969 -0.238281 -6.730469 -0.152344 -6.410156 L 0.34375 -4.535156 C 1.0625 -1.824219 2.914062 -0.769531 5.597656 -1.480469 L 8.828125 -2.335938 C 11.539062 -3.054688 12.601562 -4.878906 11.882812 -7.589844 L 10.449219 -13.011719 C 10.304688 -13.5625 9.953125 -13.839844 9.417969 -13.882812 L 1.839844 -14.285156 L 1.191406 -16.738281 C 0.992188 -17.488281 1.316406 -18.007812 2.039062 -18.195312 L 3.625 -18.617188 C 4.40625 -18.824219 4.886719 -18.519531 5.085938 -17.769531 L 5.40625 -16.554688 C 5.480469 -16.269531 5.699219 -16.140625 5.988281 -16.21875 L 8.902344 -16.988281 C 9.21875 -17.070312 9.320312 -17.285156 9.242188 -17.570312 L 8.738281 -19.476562 C 8.019531 -22.1875 6.195312 -23.25 3.484375 -22.53125 Z M 0.253906 -21.675781 "/></g></g></g><g fill="#ff6d60" fill-opacity="1"><g transform="translate(146.445743, 49.21756)"><g><path d="M 2.269531 -3.941406 C 1.746094 -1.1875 2.929688 0.558594 5.6875 1.082031 L 8.96875 1.710938 C 11.695312 2.230469 13.472656 1.046875 13.996094 -1.707031 L 15.269531 -8.390625 C 15.332031 -8.714844 15.183594 -8.894531 14.890625 -8.949219 L 10.140625 -9.855469 C 9.820312 -9.917969 9.644531 -9.796875 9.582031 -9.476562 L 9.023438 -6.542969 C 8.96875 -6.25 9.082031 -6.046875 9.402344 -5.984375 L 10.929688 -5.695312 L 10.441406 -3.144531 C 10.292969 -2.351562 9.808594 -2.050781 9.046875 -2.195312 L 7.171875 -2.550781 C 6.40625 -2.699219 6.070312 -3.15625 6.222656 -3.949219 L 8.242188 -14.5625 C 8.386719 -15.324219 8.847656 -15.660156 9.640625 -15.511719 L 11.515625 -15.152344 C 12.277344 -15.007812 12.609375 -14.519531 12.464844 -13.757812 L 12.191406 -12.320312 C 12.136719 -12.027344 12.25 -11.824219 12.570312 -11.761719 L 15.328125 -11.238281 C 15.621094 -11.179688 15.828125 -11.324219 15.886719 -11.617188 L 16.296875 -13.785156 C 16.824219 -16.542969 15.609375 -18.292969 12.882812 -18.8125 L 9.597656 -19.4375 C 6.84375 -19.960938 5.097656 -18.777344 4.570312 -16.019531 Z M 2.269531 -3.941406 "/></g></g></g><g fill="#ff6d60" fill-opacity="1"><g transform="translate(160.018095, 51.804027)"><g><path d="M 16.984375 -17.542969 C 17.039062 -17.835938 16.957031 -18.035156 16.605469 -18.101562 L 5.816406 -20.15625 C 5.550781 -20.207031 5.34375 -20.066406 5.285156 -19.773438 L 1.554688 -0.191406 C 1.5 0.101562 1.640625 0.3125 1.90625 0.363281 L 12.695312 2.417969 C 13.046875 2.484375 13.195312 2.332031 13.253906 2.039062 L 13.8125 -0.890625 C 13.871094 -1.214844 13.78125 -1.382812 13.429688 -1.449219 L 6.191406 -2.832031 L 7.015625 -7.167969 L 12.527344 -6.117188 C 12.820312 -6.0625 13.03125 -6.207031 13.09375 -6.527344 L 13.644531 -9.429688 C 13.707031 -9.753906 13.566406 -9.960938 13.269531 -10.019531 L 7.761719 -11.066406 L 8.621094 -15.582031 L 15.863281 -14.203125 C 16.214844 -14.136719 16.371094 -14.320312 16.425781 -14.613281 Z M 16.984375 -17.542969 "/></g></g></g><g fill="#ff6d60" fill-opacity="1"><g transform="translate(173.561136, 54.384909)"><g><path d="M 16.046875 -18.207031 C 16.371094 -18.148438 16.484375 -17.941406 16.425781 -17.648438 L 15.867188 -14.71875 C 15.8125 -14.425781 15.632812 -14.277344 15.308594 -14.339844 L 11.910156 -14.988281 L 8.824219 1.195312 C 8.765625 1.519531 8.589844 1.636719 8.265625 1.574219 L 5.21875 0.996094 C 4.925781 0.9375 4.777344 0.757812 4.839844 0.4375 L 7.921875 -15.746094 L 4.523438 -16.394531 C 4.230469 -16.449219 4.085938 -16.660156 4.140625 -16.953125 L 4.699219 -19.882812 C 4.757812 -20.175781 4.964844 -20.320312 5.257812 -20.265625 Z M 16.046875 -18.207031 "/></g></g></g><g fill="#98d8aa" fill-opacity="1"><g transform="translate(1.731389, 102.40156)"><g><path d="M 41.0625 -38.160156 C 42.101562 -45.453125 38.773438 -49.886719 31.480469 -50.925781 L 22.792969 -52.164062 C 15.5 -53.203125 11.066406 -49.875 10.027344 -42.582031 L 5.472656 -10.617188 C 4.433594 -3.328125 7.757812 1.105469 15.050781 2.144531 L 19.859375 2.832031 L 21.679688 8.949219 C 21.902344 9.613281 22.070312 10.113281 22.84375 10.222656 L 30.914062 11.371094 C 31.765625 11.496094 32.464844 11.039062 32.199219 10.128906 L 30.046875 3.015625 C 33.625 1.785156 35.808594 -1.308594 36.503906 -6.195312 Z M 19.835938 -39.207031 C 20.125 -41.222656 21.367188 -42.15625 23.382812 -41.867188 L 28.347656 -41.160156 C 30.367188 -40.871094 31.296875 -39.628906 31.007812 -37.613281 L 27.007812 -9.527344 C 26.707031 -7.433594 25.476562 -6.578125 23.460938 -6.867188 L 18.496094 -7.574219 C 16.476562 -7.863281 15.535156 -9.027344 15.832031 -11.121094 Z M 19.835938 -39.207031 "/></g></g></g><g fill="#98d8aa" fill-opacity="1"><g transform="translate(37.65241, 107.52178)"><g><path d="M 33.964844 -50.570312 C 33.109375 -50.691406 32.3125 -50.09375 32.191406 -49.238281 L 26.574219 -9.828125 C 26.273438 -7.734375 25.046875 -6.878906 23.027344 -7.167969 L 18.992188 -7.742188 C 16.976562 -8.027344 16.035156 -9.191406 16.332031 -11.289062 L 21.949219 -50.699219 C 22.070312 -51.554688 21.472656 -52.351562 20.621094 -52.472656 L 13.171875 -53.535156 C 12.320312 -53.65625 11.519531 -53.058594 11.398438 -52.203125 L 5.472656 -10.617188 C 4.433594 -3.328125 7.757812 1.105469 15.050781 2.144531 L 23.742188 3.382812 C 31.035156 4.421875 35.464844 1.097656 36.503906 -6.195312 L 42.433594 -47.78125 C 42.554688 -48.632812 41.957031 -49.429688 41.101562 -49.554688 Z M 33.964844 -50.570312 "/></g></g></g><g fill="#98d8aa" fill-opacity="1"><g transform="translate(73.57343, 112.642001)"><g><path d="M 5.121094 0.730469 C 4.265625 0.609375 3.945312 0.0859375 4.054688 -0.6875 L 11.445312 -52.515625 C 11.554688 -53.289062 12.007812 -53.699219 12.863281 -53.578125 L 20.929688 -52.429688 C 21.707031 -52.316406 22.105469 -51.785156 21.996094 -51.011719 L 14.609375 0.816406 C 14.496094 1.589844 13.964844 1.992188 13.1875 1.878906 Z M 5.121094 0.730469 "/></g></g></g><g fill="#98d8aa" fill-opacity="1"><g transform="translate(89.012492, 114.842701)"><g><path d="M 14.589844 -61.25 C 13.800781 -61.28125 13.28125 -60.960938 13.160156 -60.105469 L 12.054688 -52.347656 C 11.941406 -51.570312 12.339844 -51.039062 13.117188 -50.929688 L 29.175781 -48.640625 L 2.75 -1.507812 C 2.128906 -0.488281 2.40625 0.34375 3.644531 0.519531 L 33.828125 4.820312 C 34.613281 4.855469 35.144531 4.457031 35.253906 3.679688 L 36.351562 -4 C 36.472656 -4.855469 36.0625 -5.308594 35.285156 -5.417969 L 18.21875 -7.851562 L 44.65625 -55.0625 C 45.199219 -56.09375 45 -56.914062 43.757812 -57.089844 Z M 14.589844 -61.25 "/></g></g></g><g fill="#98d8aa" fill-opacity="1"><g transform="translate(125.476591, 120.040333)"><g><path d="M 14.589844 -61.25 C 13.800781 -61.28125 13.28125 -60.960938 13.160156 -60.105469 L 12.054688 -52.347656 C 11.941406 -51.570312 12.339844 -51.039062 13.117188 -50.929688 L 29.175781 -48.640625 L 2.75 -1.507812 C 2.128906 -0.488281 2.40625 0.34375 3.644531 0.519531 L 33.828125 4.820312 C 34.613281 4.855469 35.144531 4.457031 35.253906 3.679688 L 36.351562 -4 C 36.472656 -4.855469 36.0625 -5.308594 35.285156 -5.417969 L 18.21875 -7.851562 L 44.65625 -55.0625 C 45.199219 -56.09375 45 -56.914062 43.757812 -57.089844 Z M 14.589844 -61.25 "/></g></g></g><g fill="#98d8aa" fill-opacity="1"><g transform="translate(161.94069, 125.237964)"><g><path d="M 5.121094 0.730469 C 4.265625 0.609375 3.945312 0.0859375 4.054688 -0.6875 L 11.445312 -52.515625 C 11.554688 -53.289062 12.007812 -53.699219 12.863281 -53.578125 L 20.929688 -52.429688 C 21.707031 -52.316406 22.105469 -51.785156 21.996094 -51.011719 L 14.609375 0.816406 C 14.496094 1.589844 13.964844 1.992188 13.1875 1.878906 Z M 5.121094 0.730469 "/></g></g></g><g fill="#98d8aa" fill-opacity="1"><g transform="translate(177.379756, 127.438665)"><g><path d="M 41.140625 -38.148438 C 42.179688 -45.441406 38.773438 -49.886719 31.558594 -50.914062 L 22.871094 -52.152344 C 15.578125 -53.191406 11.066406 -49.875 10.027344 -42.582031 L 5.472656 -10.617188 C 4.433594 -3.328125 7.835938 1.117188 15.128906 2.15625 L 23.816406 3.394531 C 31.035156 4.421875 35.542969 1.109375 36.582031 -6.183594 L 37.777344 -14.5625 C 37.886719 -15.339844 37.488281 -15.871094 36.710938 -15.980469 L 29.417969 -17.019531 C 28.566406 -17.144531 28.113281 -16.734375 28 -15.957031 L 27.0625 -9.363281 C 26.761719 -7.265625 25.53125 -6.414062 23.515625 -6.703125 L 18.550781 -7.410156 C 16.535156 -7.695312 15.589844 -8.859375 15.890625 -10.953125 L 19.902344 -39.117188 C 20.191406 -41.132812 21.355469 -42.078125 23.449219 -41.777344 L 28.414062 -41.070312 C 30.433594 -40.78125 31.363281 -39.542969 31.074219 -37.523438 L 30.167969 -31.164062 C 30.058594 -30.386719 30.378906 -29.867188 31.234375 -29.746094 L 38.527344 -28.707031 C 39.300781 -28.59375 39.832031 -28.992188 39.945312 -29.769531 Z M 41.140625 -38.148438 "/></g></g></g><g fill="#98d8aa" fill-opacity="1"><g transform="translate(213.378374, 132.569946)"><g><path d="M 40.5 5.773438 C 41.429688 5.90625 41.882812 5.496094 41.773438 4.609375 L 36.292969 -49.128906 C 36.246094 -49.929688 35.828125 -50.304688 35.128906 -50.40625 L 24.34375 -51.941406 C 23.644531 -52.042969 23.136719 -51.796875 22.871094 -51.042969 L 2.59375 -0.976562 C 2.238281 -0.15625 2.558594 0.363281 3.414062 0.488281 L 11.015625 1.570312 C 11.714844 1.667969 12.160156 1.335938 12.414062 0.660156 L 16.210938 -8.773438 L 30.796875 -6.691406 L 31.886719 3.4375 C 31.941406 4.15625 32.273438 4.601562 32.972656 4.699219 Z M 29.675781 -16.035156 L 19.898438 -17.429688 L 27.796875 -37.835938 Z M 29.675781 -16.035156 "/></g></g></g><g fill="#98d8aa" fill-opacity="1"><g transform="translate(254.497478, 138.431107)"><g><path d="M 15.890625 -8.183594 L 31.25 -5.996094 C 32.105469 -5.871094 32.425781 -5.351562 32.316406 -4.574219 L 31.210938 3.183594 C 31.089844 4.035156 30.644531 4.367188 29.792969 4.246094 L 5.121094 0.730469 C 4.34375 0.621094 3.933594 0.164062 4.054688 -0.6875 L 11.445312 -52.515625 C 11.554688 -53.289062 12.085938 -53.6875 12.863281 -53.578125 L 20.929688 -52.429688 C 21.785156 -52.308594 22.105469 -51.785156 21.996094 -51.011719 Z M 15.890625 -8.183594 "/></g></g></g></svg>