<svg xmlns="http://www.w3.org/2000/svg" xmlns:xlink="http://www.w3.org/1999/xlink" width="400" zoomAndPan="magnify" viewBox="0 0 300 74.999997" height="100" preserveAspectRatio="xMidYMid meet" version="1.0"><defs><g/></defs><rect x="-30" width="360" fill="#ffffff" y="-7.5" height="89.999996" fill-opacity="1"/><rect x="-30" width="360" fill="#ffffff" y="-7.5" height="89.999996" fill-opacity="1"/><rect x="-30" width="360" fill="#f3e99f" y="-7.5" height="89.999996" fill-opacity="1"/><g fill="#98d8aa" fill-opacity="1"><g transform="translate(20.371094, 65.033336)"><g><path d="M 31.464844 -38.875 C 31.464844 -45.449219 27.96875 -48.945312 21.394531 -48.945312 L 13.566406 -48.945312 C 6.992188 -48.945312 3.496094 -45.449219 3.496094 -38.875 L 3.496094 -10.070312 C 3.496094 -3.496094 6.992188 0 13.566406 0 L 17.898438 0 L 20.277344 5.175781 C 20.558594 5.734375 20.765625 6.152344 21.464844 6.152344 L 28.738281 6.152344 C 29.507812 6.152344 30.066406 5.664062 29.714844 4.894531 L 26.917969 -1.117188 C 29.925781 -2.65625 31.464844 -5.664062 31.464844 -10.070312 Z M 12.585938 -37.128906 C 12.585938 -38.945312 13.566406 -39.925781 15.382812 -39.925781 L 19.859375 -39.925781 C 21.675781 -39.925781 22.65625 -38.945312 22.65625 -37.128906 L 22.65625 -11.816406 C 22.65625 -9.929688 21.675781 -9.019531 19.859375 -9.019531 L 15.382812 -9.019531 C 13.566406 -9.019531 12.585938 -9.929688 12.585938 -11.816406 Z M 12.585938 -37.128906 "/></g></g></g><g fill="#98d8aa" fill-opacity="1"><g transform="translate(52.743402, 65.033336)"><g><path d="M 23.632812 -48.945312 C 22.863281 -48.945312 22.234375 -48.316406 22.234375 -47.546875 L 22.234375 -12.027344 C 22.234375 -10.136719 21.257812 -9.230469 19.4375 -9.230469 L 15.800781 -9.230469 C 13.984375 -9.230469 13.003906 -10.136719 13.003906 -12.027344 L 13.003906 -47.546875 C 13.003906 -48.316406 12.375 -48.945312 11.605469 -48.945312 L 4.894531 -48.945312 C 4.125 -48.945312 3.496094 -48.316406 3.496094 -47.546875 L 3.496094 -10.070312 C 3.496094 -3.496094 6.992188 0 13.566406 0 L 21.394531 0 C 27.96875 0 31.464844 -3.496094 31.464844 -10.070312 L 31.464844 -47.546875 C 31.464844 -48.316406 30.835938 -48.945312 30.066406 -48.945312 Z M 23.632812 -48.945312 "/></g></g></g><g fill="#98d8aa" fill-opacity="1"><g transform="translate(85.115711, 65.033336)"><g><path d="M 4.613281 0 C 3.84375 0 3.496094 -0.417969 3.496094 -1.117188 L 3.496094 -47.828125 C 3.496094 -48.527344 3.84375 -48.945312 4.613281 -48.945312 L 11.886719 -48.945312 C 12.585938 -48.945312 13.003906 -48.527344 13.003906 -47.828125 L 13.003906 -1.117188 C 13.003906 -0.417969 12.585938 0 11.886719 0 Z M 4.613281 0 "/></g></g></g><g fill="#98d8aa" fill-opacity="1"><g transform="translate(99.02936, 65.033336)"><g><path d="M 5.175781 -55.9375 C 4.476562 -55.867188 4.054688 -55.519531 4.054688 -54.75 L 4.054688 -47.757812 C 4.054688 -47.058594 4.476562 -46.636719 5.175781 -46.636719 L 19.648438 -46.636719 L 2.238281 -1.679688 C 1.816406 -0.699219 2.167969 0 3.285156 0 L 30.484375 0 C 31.183594 -0.0703125 31.605469 -0.488281 31.605469 -1.1875 L 31.605469 -8.109375 C 31.605469 -8.878906 31.183594 -9.230469 30.484375 -9.230469 L 15.101562 -9.230469 L 32.511719 -54.257812 C 32.863281 -55.238281 32.582031 -55.9375 31.464844 -55.9375 Z M 5.175781 -55.9375 "/></g></g></g><g fill="#98d8aa" fill-opacity="1"><g transform="translate(131.891105, 65.033336)"><g><path d="M 5.175781 -55.9375 C 4.476562 -55.867188 4.054688 -55.519531 4.054688 -54.75 L 4.054688 -47.757812 C 4.054688 -47.058594 4.476562 -46.636719 5.175781 -46.636719 L 19.648438 -46.636719 L 2.238281 -1.679688 C 1.816406 -0.699219 2.167969 0 3.285156 0 L 30.484375 0 C 31.183594 -0.0703125 31.605469 -0.488281 31.605469 -1.1875 L 31.605469 -8.109375 C 31.605469 -8.878906 31.183594 -9.230469 30.484375 -9.230469 L 15.101562 -9.230469 L 32.511719 -54.257812 C 32.863281 -55.238281 32.582031 -55.9375 31.464844 -55.9375 Z M 5.175781 -55.9375 "/></g></g></g><g fill="#98d8aa" fill-opacity="1"><g transform="translate(164.752855, 65.033336)"><g><path d="M 4.613281 0 C 3.84375 0 3.496094 -0.417969 3.496094 -1.117188 L 3.496094 -47.828125 C 3.496094 -48.527344 3.84375 -48.945312 4.613281 -48.945312 L 11.886719 -48.945312 C 12.585938 -48.945312 13.003906 -48.527344 13.003906 -47.828125 L 13.003906 -1.117188 C 13.003906 -0.417969 12.585938 0 11.886719 0 Z M 4.613281 0 "/></g></g></g><g fill="#98d8aa" fill-opacity="1"><g transform="translate(178.666508, 65.033336)"><g><path d="M 31.535156 -38.875 C 31.535156 -45.449219 27.96875 -48.945312 21.464844 -48.945312 L 13.632812 -48.945312 C 7.0625 -48.945312 3.496094 -45.449219 3.496094 -38.875 L 3.496094 -10.070312 C 3.496094 -3.496094 7.0625 0 13.632812 0 L 21.464844 0 C 27.96875 0 31.535156 -3.496094 31.535156 -10.070312 L 31.535156 -17.621094 C 31.535156 -18.320312 31.113281 -18.738281 30.414062 -18.738281 L 23.84375 -18.738281 C 23.074219 -18.738281 22.722656 -18.320312 22.722656 -17.621094 L 22.722656 -11.675781 C 22.722656 -9.789062 21.746094 -8.878906 19.925781 -8.878906 L 15.453125 -8.878906 C 13.632812 -8.878906 12.65625 -9.789062 12.65625 -11.675781 L 12.65625 -37.058594 C 12.65625 -38.875 13.566406 -39.855469 15.453125 -39.855469 L 19.925781 -39.855469 C 21.746094 -39.855469 22.722656 -38.875 22.722656 -37.058594 L 22.722656 -31.324219 C 22.722656 -30.625 23.074219 -30.207031 23.84375 -30.207031 L 30.414062 -30.207031 C 31.113281 -30.207031 31.535156 -30.625 31.535156 -31.324219 Z M 31.535156 -38.875 "/></g></g></g><g fill="#98d8aa" fill-opacity="1"><g transform="translate(211.108733, 65.033336)"><g><path d="M 36.5 0 C 37.339844 0 37.6875 -0.417969 37.476562 -1.1875 L 25.871094 -47.964844 C 25.730469 -48.664062 25.3125 -48.945312 24.683594 -48.945312 L 14.964844 -48.945312 C 14.332031 -48.945312 13.914062 -48.664062 13.773438 -47.964844 L 2.167969 -1.1875 C 1.957031 -0.417969 2.308594 0 3.078125 0 L 9.929688 0 C 10.558594 0 10.90625 -0.347656 11.046875 -0.980469 L 13.214844 -9.789062 L 26.359375 -9.789062 L 28.597656 -0.980469 C 28.738281 -0.347656 29.085938 0 29.714844 0 Z M 24.191406 -17.898438 L 15.382812 -17.898438 L 19.789062 -36.917969 Z M 24.191406 -17.898438 "/></g></g></g><g fill="#98d8aa" fill-opacity="1"><g transform="translate(248.165636, 65.033336)"><g><path d="M 13.003906 -9.230469 L 26.851562 -9.230469 C 27.617188 -9.230469 27.96875 -8.808594 27.96875 -8.109375 L 27.96875 -1.117188 C 27.96875 -0.347656 27.617188 0 26.851562 0 L 4.613281 0 C 3.914062 0 3.496094 -0.347656 3.496094 -1.117188 L 3.496094 -47.828125 C 3.496094 -48.527344 3.914062 -48.945312 4.613281 -48.945312 L 11.886719 -48.945312 C 12.65625 -48.945312 13.003906 -48.527344 13.003906 -47.828125 Z M 13.003906 -9.230469 "/></g></g></g></svg>